<svg class="w-10 h-10" viewBox="5 5 90 90"> <g transform="translate(50,50)"> <ellipse cx="0" cy="-22" rx="7" ry="18" fill="#faf7f2" opacity=".95"></ellipse> <ellipse cx="0" cy="-22" rx="7" ry="18" fill="#faf7f2" opacity=".95" transform="rotate(45)"></ellipse> <ellipse cx="0" cy="-22" rx="7" ry="18" fill="#faf7f2" opacity=".95" transform="rotate(90)"></ellipse> <ellipse cx="0" cy="-22" rx="7" ry="18" fill="#faf7f2" opacity=".95" transform="rotate(135)"></ellipse> <ellipse cx="0" cy="-22" rx="7" ry="18" fill="#faf7f2" opacity=".95" transform="rotate(180)"></ellipse> <ellipse cx="0" cy="-22" rx="7" ry="18" fill="#faf7f2" opacity=".95" transform="rotate(225)"></ellipse> <ellipse cx="0" cy="-22" rx="7" ry="18" fill="#faf7f2" opacity=".95" transform="rotate(270)"></ellipse> <ellipse cx="0" cy="-22" rx="7" ry="18" fill="#faf7f2" opacity=".95" transform="rotate(315)"></ellipse> </g> <g transform="translate(50,50)"> <rect x="-2" y="-42" width="4" height="12" fill="#d4a847" rx="2" transform="rotate(22.5)"></rect> <rect x="-2" y="-42" width="4" height="12" fill="#d4a847" rx="2" transform="rotate(67.5)"></rect> <rect x="-2" y="-42" width="4" height="12" fill="#d4a847" rx="2" transform="rotate(112.5)"></rect> <rect x="-2" y="-42" width="4" height="12" fill="#d4a847" rx="2" transform="rotate(157.5)"></rect> <rect x="-2" y="-42" width="4" height="12" fill="#d4a847" rx="2" transform="rotate(202.5)"></rect> <rect x="-2" y="-42" width="4" height="12" fill="#d4a847" rx="2" transform="rotate(247.5)"></rect> <rect x="-2" y="-42" width="4" height="12" fill="#d4a847" rx="2" transform="rotate(292.5)"></rect> <rect x="-2" y="-42" width="4" height="12" fill="#d4a847" rx="2" transform="rotate(337.5)"></rect> </g> <circle cx="50" cy="50" r="10" fill="#d4a847"></circle><circle cx="50" cy="50" r="6" fill="#e8c876"></circle> </svg>
